<mxfile host="app.diagrams.net" modified="2020-12-11T14:48:54.097Z" agent="5.0 (Windows NT 10.0; WOW64) AppleWebKit/537.36 (KHTML, like Gecko) Chrome/87.0.4280.88 Safari/537.36" etag="dmYKQGLObs--Fbxgkd0I" version="13.11.0" type="github">
  <diagram id="Kk9kfs5vC2iuPm7ne2sn" name="Page-1">
    <mxGraphModel dx="1673" dy="896" grid="1" gridSize="10" guides="1" tooltips="1" connect="1" arrows="1" fold="1" page="1" pageScale="1" pageWidth="827" pageHeight="1169" math="0" shadow="0">
      <root>
        <mxCell id="0" />
        <mxCell id="1" parent="0" />
        <mxCell id="sQE3zmjhYJ1W6lFLZo4q-5" style="edgeStyle=orthogonalEdgeStyle;rounded=0;orthogonalLoop=1;jettySize=auto;html=1;exitX=1;exitY=0.5;exitDx=0;exitDy=0;" parent="1" source="sQE3zmjhYJ1W6lFLZo4q-1" edge="1">
          <mxGeometry relative="1" as="geometry">
            <mxPoint x="280" y="300" as="targetPoint" />
          </mxGeometry>
        </mxCell>
        <mxCell id="sQE3zmjhYJ1W6lFLZo4q-1" value="BindMsgHandler::processMsg" style="rounded=0;whiteSpace=wrap;html=1;" parent="1" vertex="1">
          <mxGeometry x="30" y="270" width="200" height="60" as="geometry" />
        </mxCell>
        <mxCell id="sQE3zmjhYJ1W6lFLZo4q-4" style="edgeStyle=orthogonalEdgeStyle;rounded=0;orthogonalLoop=1;jettySize=auto;html=1;exitX=0.5;exitY=1;exitDx=0;exitDy=0;entryX=0.5;entryY=0;entryDx=0;entryDy=0;" parent="1" source="sQE3zmjhYJ1W6lFLZo4q-3" target="sQE3zmjhYJ1W6lFLZo4q-1" edge="1">
          <mxGeometry relative="1" as="geometry" />
        </mxCell>
        <mxCell id="sQE3zmjhYJ1W6lFLZo4q-3" value="got&amp;nbsp;NEW_BIND_CLIENT_PLEASE" style="shape=parallelogram;perimeter=parallelogramPerimeter;whiteSpace=wrap;html=1;fixedSize=1;" parent="1" vertex="1">
          <mxGeometry x="20" y="160" width="220" height="60" as="geometry" />
        </mxCell>
        <mxCell id="sQE3zmjhYJ1W6lFLZo4q-7" style="edgeStyle=orthogonalEdgeStyle;rounded=0;orthogonalLoop=1;jettySize=auto;html=1;exitX=1;exitY=0.5;exitDx=0;exitDy=0;" parent="1" source="sQE3zmjhYJ1W6lFLZo4q-6" edge="1">
          <mxGeometry relative="1" as="geometry">
            <mxPoint x="500" y="300" as="targetPoint" />
          </mxGeometry>
        </mxCell>
        <mxCell id="sQE3zmjhYJ1W6lFLZo4q-6" value="case : NEW_BIND_CLIENT_PLEASE" style="whiteSpace=wrap;html=1;" parent="1" vertex="1">
          <mxGeometry x="280" y="270" width="180" height="60" as="geometry" />
        </mxCell>
        <mxCell id="sQE3zmjhYJ1W6lFLZo4q-10" style="edgeStyle=orthogonalEdgeStyle;rounded=0;orthogonalLoop=1;jettySize=auto;html=1;exitX=1;exitY=0.5;exitDx=0;exitDy=0;" parent="1" source="sQE3zmjhYJ1W6lFLZo4q-9" edge="1">
          <mxGeometry relative="1" as="geometry">
            <mxPoint x="800" y="300" as="targetPoint" />
          </mxGeometry>
        </mxCell>
        <mxCell id="sQE3zmjhYJ1W6lFLZo4q-9" value="CLNT_CONN_MGR.processLegacyLogon" style="whiteSpace=wrap;html=1;" parent="1" vertex="1">
          <mxGeometry x="500" y="270" width="240" height="60" as="geometry" />
        </mxCell>
        <mxCell id="sQE3zmjhYJ1W6lFLZo4q-12" style="edgeStyle=orthogonalEdgeStyle;rounded=0;orthogonalLoop=1;jettySize=auto;html=1;exitX=1;exitY=0.5;exitDx=0;exitDy=0;" parent="1" source="sQE3zmjhYJ1W6lFLZo4q-11" edge="1">
          <mxGeometry relative="1" as="geometry">
            <mxPoint x="980" y="300" as="targetPoint" />
          </mxGeometry>
        </mxCell>
        <mxCell id="sQE3zmjhYJ1W6lFLZo4q-11" value="extract all the FID values" style="whiteSpace=wrap;html=1;" parent="1" vertex="1">
          <mxGeometry x="800" y="270" width="120" height="60" as="geometry" />
        </mxCell>
        <mxCell id="sQE3zmjhYJ1W6lFLZo4q-15" style="edgeStyle=orthogonalEdgeStyle;rounded=0;orthogonalLoop=1;jettySize=auto;html=1;exitX=1;exitY=0.5;exitDx=0;exitDy=0;" parent="1" source="sQE3zmjhYJ1W6lFLZo4q-14" target="sQE3zmjhYJ1W6lFLZo4q-16" edge="1">
          <mxGeometry relative="1" as="geometry">
            <mxPoint x="1100" y="300" as="targetPoint" />
          </mxGeometry>
        </mxCell>
        <mxCell id="sQE3zmjhYJ1W6lFLZo4q-14" value="mTrialFlag &lt;br&gt;is set ?" style="rhombus;whiteSpace=wrap;html=1;" parent="1" vertex="1">
          <mxGeometry x="980" y="260" width="80" height="80" as="geometry" />
        </mxCell>
        <mxCell id="sQE3zmjhYJ1W6lFLZo4q-30" style="edgeStyle=orthogonalEdgeStyle;rounded=0;orthogonalLoop=1;jettySize=auto;html=1;exitX=0.5;exitY=1;exitDx=0;exitDy=0;entryX=0.5;entryY=0;entryDx=0;entryDy=0;" parent="1" source="sQE3zmjhYJ1W6lFLZo4q-16" target="sQE3zmjhYJ1W6lFLZo4q-26" edge="1">
          <mxGeometry relative="1" as="geometry" />
        </mxCell>
        <mxCell id="sQE3zmjhYJ1W6lFLZo4q-40" style="edgeStyle=orthogonalEdgeStyle;rounded=0;orthogonalLoop=1;jettySize=auto;html=1;exitX=1;exitY=0.5;exitDx=0;exitDy=0;" parent="1" source="sQE3zmjhYJ1W6lFLZo4q-16" target="sQE3zmjhYJ1W6lFLZo4q-41" edge="1">
          <mxGeometry relative="1" as="geometry">
            <mxPoint x="1400" y="300" as="targetPoint" />
          </mxGeometry>
        </mxCell>
        <mxCell id="sQE3zmjhYJ1W6lFLZo4q-16" value="processTrialLogonRqst" style="rounded=0;whiteSpace=wrap;html=1;" parent="1" vertex="1">
          <mxGeometry x="1090" y="270" width="170" height="60" as="geometry" />
        </mxCell>
        <mxCell id="sQE3zmjhYJ1W6lFLZo4q-17" value="Y" style="text;html=1;align=center;verticalAlign=middle;resizable=0;points=[];autosize=1;" parent="1" vertex="1">
          <mxGeometry x="1060" y="280" width="20" height="20" as="geometry" />
        </mxCell>
        <mxCell id="sQE3zmjhYJ1W6lFLZo4q-31" style="edgeStyle=orthogonalEdgeStyle;rounded=0;orthogonalLoop=1;jettySize=auto;html=1;exitX=1;exitY=0.5;exitDx=0;exitDy=0;entryX=0.5;entryY=0;entryDx=0;entryDy=0;" parent="1" source="sQE3zmjhYJ1W6lFLZo4q-26" target="sQE3zmjhYJ1W6lFLZo4q-27" edge="1">
          <mxGeometry relative="1" as="geometry" />
        </mxCell>
        <mxCell id="sQE3zmjhYJ1W6lFLZo4q-32" style="edgeStyle=orthogonalEdgeStyle;rounded=0;orthogonalLoop=1;jettySize=auto;html=1;exitX=0;exitY=0.5;exitDx=0;exitDy=0;" parent="1" source="sQE3zmjhYJ1W6lFLZo4q-26" target="sQE3zmjhYJ1W6lFLZo4q-33" edge="1">
          <mxGeometry relative="1" as="geometry">
            <mxPoint x="1050" y="480" as="targetPoint" />
          </mxGeometry>
        </mxCell>
        <mxCell id="sQE3zmjhYJ1W6lFLZo4q-26" value="user logged in locally ?" style="rhombus;whiteSpace=wrap;html=1;" parent="1" vertex="1">
          <mxGeometry x="1125" y="370" width="100" height="100" as="geometry" />
        </mxCell>
        <mxCell id="sQE3zmjhYJ1W6lFLZo4q-37" style="edgeStyle=orthogonalEdgeStyle;rounded=0;orthogonalLoop=1;jettySize=auto;html=1;exitX=0.5;exitY=1;exitDx=0;exitDy=0;" parent="1" source="sQE3zmjhYJ1W6lFLZo4q-27" target="sQE3zmjhYJ1W6lFLZo4q-38" edge="1">
          <mxGeometry relative="1" as="geometry">
            <mxPoint x="1316" y="600" as="targetPoint" />
          </mxGeometry>
        </mxCell>
        <mxCell id="sQE3zmjhYJ1W6lFLZo4q-27" value="sendTrialLoginResp :&lt;br&gt;" style="rounded=0;whiteSpace=wrap;html=1;" parent="1" vertex="1">
          <mxGeometry x="1241" y="480" width="149" height="60" as="geometry" />
        </mxCell>
        <mxCell id="sQE3zmjhYJ1W6lFLZo4q-28" value="Y" style="text;html=1;align=center;verticalAlign=middle;resizable=0;points=[];autosize=1;" parent="1" vertex="1">
          <mxGeometry x="1231" y="400" width="20" height="20" as="geometry" />
        </mxCell>
        <mxCell id="sQE3zmjhYJ1W6lFLZo4q-35" style="edgeStyle=orthogonalEdgeStyle;rounded=0;orthogonalLoop=1;jettySize=auto;html=1;exitX=0.5;exitY=1;exitDx=0;exitDy=0;" parent="1" source="sQE3zmjhYJ1W6lFLZo4q-33" target="sQE3zmjhYJ1W6lFLZo4q-36" edge="1">
          <mxGeometry relative="1" as="geometry">
            <mxPoint x="1040" y="590" as="targetPoint" />
          </mxGeometry>
        </mxCell>
        <mxCell id="sQE3zmjhYJ1W6lFLZo4q-33" value="sendSbindTrialLogonReq &amp;amp;&amp;nbsp;&lt;br&gt;add tmp_rec to mPendingTrialLogons" style="rounded=0;whiteSpace=wrap;html=1;" parent="1" vertex="1">
          <mxGeometry x="960" y="480" width="160" height="60" as="geometry" />
        </mxCell>
        <mxCell id="sQE3zmjhYJ1W6lFLZo4q-34" value="N" style="text;html=1;align=center;verticalAlign=middle;resizable=0;points=[];autosize=1;" parent="1" vertex="1">
          <mxGeometry x="1070" y="400" width="20" height="20" as="geometry" />
        </mxCell>
        <mxCell id="sQE3zmjhYJ1W6lFLZo4q-36" value="send&amp;nbsp;SBIND_TRIAL_LOGON_REQ &lt;br&gt;to remq (sbind)" style="rounded=0;whiteSpace=wrap;html=1;" parent="1" vertex="1">
          <mxGeometry x="930" y="590" width="220" height="60" as="geometry" />
        </mxCell>
        <mxCell id="sQE3zmjhYJ1W6lFLZo4q-38" value="&lt;span&gt;send&amp;nbsp;&lt;/span&gt;&lt;span&gt;TRIAL_LOGIN_RESP&amp;nbsp;&lt;/span&gt;&lt;span&gt;&amp;nbsp;&lt;br&gt;to isi&lt;/span&gt;" style="rounded=0;whiteSpace=wrap;html=1;" parent="1" vertex="1">
          <mxGeometry x="1240" y="590" width="150" height="60" as="geometry" />
        </mxCell>
        <mxCell id="sQE3zmjhYJ1W6lFLZo4q-43" style="edgeStyle=orthogonalEdgeStyle;rounded=0;orthogonalLoop=1;jettySize=auto;html=1;exitX=0.5;exitY=1;exitDx=0;exitDy=0;" parent="1" source="sQE3zmjhYJ1W6lFLZo4q-41" edge="1">
          <mxGeometry relative="1" as="geometry">
            <mxPoint x="1505" y="430" as="targetPoint" />
          </mxGeometry>
        </mxCell>
        <mxCell id="sQE3zmjhYJ1W6lFLZo4q-47" style="edgeStyle=orthogonalEdgeStyle;rounded=0;orthogonalLoop=1;jettySize=auto;html=1;exitX=1;exitY=0.5;exitDx=0;exitDy=0;" parent="1" source="sQE3zmjhYJ1W6lFLZo4q-41" target="sQE3zmjhYJ1W6lFLZo4q-48" edge="1">
          <mxGeometry relative="1" as="geometry">
            <mxPoint x="1710" y="300" as="targetPoint" />
          </mxGeometry>
        </mxCell>
        <mxCell id="sQE3zmjhYJ1W6lFLZo4q-41" value="I am not special user ?&lt;br&gt;&amp;amp;&lt;br&gt;Server is in&amp;nbsp;failover mode ?" style="rhombus;whiteSpace=wrap;html=1;" parent="1" vertex="1">
          <mxGeometry x="1420" y="220" width="170" height="160" as="geometry" />
        </mxCell>
        <mxCell id="sQE3zmjhYJ1W6lFLZo4q-44" value="Y" style="text;html=1;align=center;verticalAlign=middle;resizable=0;points=[];autosize=1;" parent="1" vertex="1">
          <mxGeometry x="1510" y="400" width="20" height="20" as="geometry" />
        </mxCell>
        <mxCell id="sQE3zmjhYJ1W6lFLZo4q-45" value="send BIND_REFUSED with err code BINDE_SYS_FAIL to ISI" style="rounded=0;whiteSpace=wrap;html=1;" parent="1" vertex="1">
          <mxGeometry x="1445" y="430" width="120" height="60" as="geometry" />
        </mxCell>
        <mxCell id="sQE3zmjhYJ1W6lFLZo4q-46" value="&lt;span&gt;sendBindRefused&lt;/span&gt;" style="text;html=1;align=center;verticalAlign=middle;resizable=0;points=[];autosize=1;" parent="1" vertex="1">
          <mxGeometry x="1380" y="410" width="110" height="20" as="geometry" />
        </mxCell>
        <mxCell id="sQE3zmjhYJ1W6lFLZo4q-49" style="edgeStyle=orthogonalEdgeStyle;rounded=0;orthogonalLoop=1;jettySize=auto;html=1;exitX=0.5;exitY=1;exitDx=0;exitDy=0;" parent="1" source="sQE3zmjhYJ1W6lFLZo4q-48" target="sQE3zmjhYJ1W6lFLZo4q-51" edge="1">
          <mxGeometry relative="1" as="geometry">
            <mxPoint x="1765" y="430" as="targetPoint" />
          </mxGeometry>
        </mxCell>
        <mxCell id="sQE3zmjhYJ1W6lFLZo4q-53" style="edgeStyle=orthogonalEdgeStyle;rounded=0;orthogonalLoop=1;jettySize=auto;html=1;exitX=1;exitY=0.5;exitDx=0;exitDy=0;" parent="1" source="sQE3zmjhYJ1W6lFLZo4q-48" target="sQE3zmjhYJ1W6lFLZo4q-54" edge="1">
          <mxGeometry relative="1" as="geometry">
            <mxPoint x="1950" y="300" as="targetPoint" />
          </mxGeometry>
        </mxCell>
        <mxCell id="sQE3zmjhYJ1W6lFLZo4q-48" value="I am not special user ? &amp;amp;&amp;nbsp;&lt;br&gt;force server offline is on ?" style="rhombus;whiteSpace=wrap;html=1;" parent="1" vertex="1">
          <mxGeometry x="1670" y="210" width="190" height="180" as="geometry" />
        </mxCell>
        <mxCell id="sQE3zmjhYJ1W6lFLZo4q-50" value="Y" style="text;html=1;align=center;verticalAlign=middle;resizable=0;points=[];autosize=1;" parent="1" vertex="1">
          <mxGeometry x="1760" y="400" width="20" height="20" as="geometry" />
        </mxCell>
        <mxCell id="sQE3zmjhYJ1W6lFLZo4q-51" value="&lt;span&gt;send BIND_REFUSED with err code BINDE_SYS_FAIL to ISI&lt;/span&gt;" style="rounded=0;whiteSpace=wrap;html=1;" parent="1" vertex="1">
          <mxGeometry x="1702.5" y="430" width="125" height="70" as="geometry" />
        </mxCell>
        <mxCell id="sQE3zmjhYJ1W6lFLZo4q-52" value="sendBindRefused" style="text;html=1;align=center;verticalAlign=middle;resizable=0;points=[];autosize=1;" parent="1" vertex="1">
          <mxGeometry x="1655" y="410" width="110" height="20" as="geometry" />
        </mxCell>
        <mxCell id="sQE3zmjhYJ1W6lFLZo4q-59" style="edgeStyle=orthogonalEdgeStyle;rounded=0;orthogonalLoop=1;jettySize=auto;html=1;exitX=0.5;exitY=1;exitDx=0;exitDy=0;" parent="1" source="sQE3zmjhYJ1W6lFLZo4q-54" target="sQE3zmjhYJ1W6lFLZo4q-60" edge="1">
          <mxGeometry relative="1" as="geometry">
            <mxPoint x="1980" y="410" as="targetPoint" />
          </mxGeometry>
        </mxCell>
        <mxCell id="sQE3zmjhYJ1W6lFLZo4q-67" style="edgeStyle=orthogonalEdgeStyle;rounded=0;orthogonalLoop=1;jettySize=auto;html=1;exitX=1;exitY=0.5;exitDx=0;exitDy=0;" parent="1" source="sQE3zmjhYJ1W6lFLZo4q-54" target="sQE3zmjhYJ1W6lFLZo4q-68" edge="1">
          <mxGeometry relative="1" as="geometry">
            <mxPoint x="2160" y="300" as="targetPoint" />
          </mxGeometry>
        </mxCell>
        <mxCell id="sQE3zmjhYJ1W6lFLZo4q-54" value="mMaxLogonPerSec&lt;br&gt;is configured ?" style="rhombus;whiteSpace=wrap;html=1;" parent="1" vertex="1">
          <mxGeometry x="1910" y="230" width="140" height="140" as="geometry" />
        </mxCell>
        <mxCell id="sQE3zmjhYJ1W6lFLZo4q-57" value="&lt;span&gt;send BIND_REFUSED with err code BINDE_COME_LATER&lt;br&gt;&amp;nbsp;to ISI&lt;/span&gt;" style="rounded=0;whiteSpace=wrap;html=1;" parent="1" vertex="1">
          <mxGeometry x="1905" y="615" width="150" height="80" as="geometry" />
        </mxCell>
        <mxCell id="sQE3zmjhYJ1W6lFLZo4q-58" value="sendBindRefused" style="text;html=1;align=center;verticalAlign=middle;resizable=0;points=[];autosize=1;" parent="1" vertex="1">
          <mxGeometry x="1840" y="595" width="110" height="20" as="geometry" />
        </mxCell>
        <mxCell id="sQE3zmjhYJ1W6lFLZo4q-63" style="edgeStyle=orthogonalEdgeStyle;rounded=0;orthogonalLoop=1;jettySize=auto;html=1;exitX=0.5;exitY=1;exitDx=0;exitDy=0;" parent="1" source="sQE3zmjhYJ1W6lFLZo4q-60" edge="1">
          <mxGeometry relative="1" as="geometry">
            <mxPoint x="1980" y="510" as="targetPoint" />
          </mxGeometry>
        </mxCell>
        <mxCell id="sQE3zmjhYJ1W6lFLZo4q-60" value="&amp;nbsp;checks number of login attemps in this second, returns true if exceeded max limit" style="rounded=0;whiteSpace=wrap;html=1;" parent="1" vertex="1">
          <mxGeometry x="1910" y="410" width="140" height="70" as="geometry" />
        </mxCell>
        <mxCell id="sQE3zmjhYJ1W6lFLZo4q-61" value="Y" style="text;html=1;align=center;verticalAlign=middle;resizable=0;points=[];autosize=1;" parent="1" vertex="1">
          <mxGeometry x="1960" y="380" width="20" height="20" as="geometry" />
        </mxCell>
        <mxCell id="sQE3zmjhYJ1W6lFLZo4q-62" value="&lt;span&gt;isLogonPacing&lt;/span&gt;" style="text;html=1;align=center;verticalAlign=middle;resizable=0;points=[];autosize=1;" parent="1" vertex="1">
          <mxGeometry x="1875" y="390" width="90" height="20" as="geometry" />
        </mxCell>
        <mxCell id="sQE3zmjhYJ1W6lFLZo4q-65" style="edgeStyle=orthogonalEdgeStyle;rounded=0;orthogonalLoop=1;jettySize=auto;html=1;exitX=0.5;exitY=1;exitDx=0;exitDy=0;entryX=0.5;entryY=0;entryDx=0;entryDy=0;" parent="1" source="sQE3zmjhYJ1W6lFLZo4q-64" target="sQE3zmjhYJ1W6lFLZo4q-57" edge="1">
          <mxGeometry relative="1" as="geometry" />
        </mxCell>
        <mxCell id="sQE3zmjhYJ1W6lFLZo4q-64" value="returned &lt;br&gt;true ?" style="rhombus;whiteSpace=wrap;html=1;" parent="1" vertex="1">
          <mxGeometry x="1940" y="510" width="80" height="80" as="geometry" />
        </mxCell>
        <mxCell id="sQE3zmjhYJ1W6lFLZo4q-66" value="Y" style="text;html=1;align=center;verticalAlign=middle;resizable=0;points=[];autosize=1;" parent="1" vertex="1">
          <mxGeometry x="1980" y="590" width="20" height="20" as="geometry" />
        </mxCell>
        <mxCell id="sQE3zmjhYJ1W6lFLZo4q-69" style="edgeStyle=orthogonalEdgeStyle;rounded=0;orthogonalLoop=1;jettySize=auto;html=1;exitX=0.5;exitY=1;exitDx=0;exitDy=0;" parent="1" source="sQE3zmjhYJ1W6lFLZo4q-68" target="sQE3zmjhYJ1W6lFLZo4q-70" edge="1">
          <mxGeometry relative="1" as="geometry">
            <mxPoint x="2185" y="420" as="targetPoint" />
          </mxGeometry>
        </mxCell>
        <mxCell id="sQE3zmjhYJ1W6lFLZo4q-72" style="edgeStyle=orthogonalEdgeStyle;rounded=0;orthogonalLoop=1;jettySize=auto;html=1;exitX=1;exitY=0.5;exitDx=0;exitDy=0;" parent="1" source="sQE3zmjhYJ1W6lFLZo4q-68" target="sQE3zmjhYJ1W6lFLZo4q-73" edge="1">
          <mxGeometry relative="1" as="geometry">
            <mxPoint x="2340" y="300" as="targetPoint" />
          </mxGeometry>
        </mxCell>
        <mxCell id="sQE3zmjhYJ1W6lFLZo4q-68" value="if password is not present &amp;amp; cookie is enable" style="rhombus;whiteSpace=wrap;html=1;" parent="1" vertex="1">
          <mxGeometry x="2120" y="240" width="130" height="120" as="geometry" />
        </mxCell>
        <mxCell id="sQE3zmjhYJ1W6lFLZo4q-70" value="&lt;span&gt;send BIND_REFUSED with err code BINDE_USER_PASS&lt;br&gt;&amp;nbsp;to ISI&lt;/span&gt;" style="rounded=0;whiteSpace=wrap;html=1;" parent="1" vertex="1">
          <mxGeometry x="2120" y="410" width="130" height="70" as="geometry" />
        </mxCell>
        <mxCell id="sQE3zmjhYJ1W6lFLZo4q-71" value="sendBindRefused" style="text;html=1;align=center;verticalAlign=middle;resizable=0;points=[];autosize=1;" parent="1" vertex="1">
          <mxGeometry x="2068" y="390" width="110" height="20" as="geometry" />
        </mxCell>
        <mxCell id="sQE3zmjhYJ1W6lFLZo4q-79" style="edgeStyle=orthogonalEdgeStyle;rounded=0;orthogonalLoop=1;jettySize=auto;html=1;exitX=0.5;exitY=1;exitDx=0;exitDy=0;" parent="1" source="sQE3zmjhYJ1W6lFLZo4q-73" target="sQE3zmjhYJ1W6lFLZo4q-76" edge="1">
          <mxGeometry relative="1" as="geometry" />
        </mxCell>
        <mxCell id="8lPC1WI4pSzVhjpdEmEM-3" style="edgeStyle=orthogonalEdgeStyle;rounded=0;orthogonalLoop=1;jettySize=auto;html=1;exitX=1;exitY=0.5;exitDx=0;exitDy=0;" parent="1" source="sQE3zmjhYJ1W6lFLZo4q-73" target="8lPC1WI4pSzVhjpdEmEM-4" edge="1">
          <mxGeometry relative="1" as="geometry">
            <mxPoint x="2540" y="300" as="targetPoint" />
          </mxGeometry>
        </mxCell>
        <mxCell id="sQE3zmjhYJ1W6lFLZo4q-73" value="checkTickerFlagsConfig :&lt;br&gt;this checks flags combination is valid or not&amp;nbsp;" style="rhombus;whiteSpace=wrap;html=1;" parent="1" vertex="1">
          <mxGeometry x="2300" y="220" width="150" height="160" as="geometry" />
        </mxCell>
        <mxCell id="sQE3zmjhYJ1W6lFLZo4q-76" value="&lt;span&gt;send BIND_REFUSED with err code&amp;nbsp;&lt;br&gt;&amp;nbsp;to ISI&lt;/span&gt;" style="rounded=0;whiteSpace=wrap;html=1;" parent="1" vertex="1">
          <mxGeometry x="2310" y="420" width="130" height="70" as="geometry" />
        </mxCell>
        <mxCell id="sQE3zmjhYJ1W6lFLZo4q-77" value="sendBindRefused" style="text;html=1;align=center;verticalAlign=middle;resizable=0;points=[];autosize=1;" parent="1" vertex="1">
          <mxGeometry x="2260" y="400" width="110" height="20" as="geometry" />
        </mxCell>
        <mxCell id="sQE3zmjhYJ1W6lFLZo4q-80" value="N" style="text;html=1;align=center;verticalAlign=middle;resizable=0;points=[];autosize=1;" parent="1" vertex="1">
          <mxGeometry x="2370" y="380" width="20" height="20" as="geometry" />
        </mxCell>
        <mxCell id="8lPC1WI4pSzVhjpdEmEM-5" style="edgeStyle=orthogonalEdgeStyle;rounded=0;orthogonalLoop=1;jettySize=auto;html=1;exitX=0.5;exitY=1;exitDx=0;exitDy=0;" parent="1" source="8lPC1WI4pSzVhjpdEmEM-4" target="8lPC1WI4pSzVhjpdEmEM-7" edge="1">
          <mxGeometry relative="1" as="geometry">
            <mxPoint x="2580" y="400" as="targetPoint" />
          </mxGeometry>
        </mxCell>
        <mxCell id="5FcRQdoBI0TOSIp_MNyA-51" style="edgeStyle=orthogonalEdgeStyle;rounded=0;orthogonalLoop=1;jettySize=auto;html=1;exitX=1;exitY=0.5;exitDx=0;exitDy=0;" edge="1" parent="1" source="8lPC1WI4pSzVhjpdEmEM-4" target="5FcRQdoBI0TOSIp_MNyA-55">
          <mxGeometry relative="1" as="geometry">
            <mxPoint x="5750" y="300" as="targetPoint" />
            <Array as="points">
              <mxPoint x="5733" y="300" />
            </Array>
          </mxGeometry>
        </mxCell>
        <mxCell id="8lPC1WI4pSzVhjpdEmEM-4" value="&lt;font style=&quot;font-size: 18px&quot;&gt;special user ?&lt;/font&gt;" style="rhombus;whiteSpace=wrap;html=1;" parent="1" vertex="1">
          <mxGeometry x="2505" y="230" width="150" height="140" as="geometry" />
        </mxCell>
        <mxCell id="8lPC1WI4pSzVhjpdEmEM-6" value="Y" style="text;html=1;align=center;verticalAlign=middle;resizable=0;points=[];autosize=1;" parent="1" vertex="1">
          <mxGeometry x="2580" y="360" width="20" height="20" as="geometry" />
        </mxCell>
        <mxCell id="8lPC1WI4pSzVhjpdEmEM-8" style="edgeStyle=orthogonalEdgeStyle;rounded=0;orthogonalLoop=1;jettySize=auto;html=1;exitX=1;exitY=0.5;exitDx=0;exitDy=0;" parent="1" source="8lPC1WI4pSzVhjpdEmEM-7" target="8lPC1WI4pSzVhjpdEmEM-9" edge="1">
          <mxGeometry relative="1" as="geometry">
            <mxPoint x="2720" y="425" as="targetPoint" />
          </mxGeometry>
        </mxCell>
        <mxCell id="8lPC1WI4pSzVhjpdEmEM-7" value="&lt;div&gt;look for existing record by username&amp;nbsp;&lt;/div&gt;&lt;div&gt;if found kick off and delete record,&amp;nbsp;&lt;/div&gt;&lt;div&gt;free logical id, etc.&lt;/div&gt;" style="rounded=0;whiteSpace=wrap;html=1;" parent="1" vertex="1">
          <mxGeometry x="2490" y="390" width="180" height="70" as="geometry" />
        </mxCell>
        <mxCell id="8lPC1WI4pSzVhjpdEmEM-10" style="edgeStyle=orthogonalEdgeStyle;rounded=0;orthogonalLoop=1;jettySize=auto;html=1;exitX=1;exitY=0.5;exitDx=0;exitDy=0;" parent="1" source="8lPC1WI4pSzVhjpdEmEM-9" target="8lPC1WI4pSzVhjpdEmEM-11" edge="1">
          <mxGeometry relative="1" as="geometry">
            <mxPoint x="2900" y="425" as="targetPoint" />
          </mxGeometry>
        </mxCell>
        <mxCell id="8lPC1WI4pSzVhjpdEmEM-9" value="check &lt;br&gt;special user name, &lt;br&gt;assign logical address, etc" style="rounded=0;whiteSpace=wrap;html=1;" parent="1" vertex="1">
          <mxGeometry x="2710" y="395" width="120" height="60" as="geometry" />
        </mxCell>
        <mxCell id="8lPC1WI4pSzVhjpdEmEM-12" style="edgeStyle=orthogonalEdgeStyle;rounded=0;orthogonalLoop=1;jettySize=auto;html=1;exitX=0.5;exitY=1;exitDx=0;exitDy=0;" parent="1" source="8lPC1WI4pSzVhjpdEmEM-11" target="8lPC1WI4pSzVhjpdEmEM-13" edge="1">
          <mxGeometry relative="1" as="geometry">
            <mxPoint x="2986" y="530" as="targetPoint" />
          </mxGeometry>
        </mxCell>
        <mxCell id="5FcRQdoBI0TOSIp_MNyA-48" style="edgeStyle=orthogonalEdgeStyle;rounded=0;orthogonalLoop=1;jettySize=auto;html=1;exitX=1;exitY=0.5;exitDx=0;exitDy=0;" edge="1" parent="1" source="8lPC1WI4pSzVhjpdEmEM-11">
          <mxGeometry relative="1" as="geometry">
            <mxPoint x="5522.35294117647" y="424.58823529411757" as="targetPoint" />
          </mxGeometry>
        </mxCell>
        <mxCell id="8lPC1WI4pSzVhjpdEmEM-11" value="logClientIn :&amp;nbsp;&lt;br&gt;&lt;div&gt;now we can actualy log in the special user&lt;/div&gt;&lt;div&gt;this will also take care of creating slot, notifications, etc.&lt;/div&gt;" style="rounded=0;whiteSpace=wrap;html=1;" parent="1" vertex="1">
          <mxGeometry x="2871" y="380" width="229" height="90" as="geometry" />
        </mxCell>
        <mxCell id="8lPC1WI4pSzVhjpdEmEM-16" style="edgeStyle=orthogonalEdgeStyle;rounded=0;orthogonalLoop=1;jettySize=auto;html=1;exitX=1;exitY=0.5;exitDx=0;exitDy=0;entryX=0;entryY=0.5;entryDx=0;entryDy=0;" parent="1" source="8lPC1WI4pSzVhjpdEmEM-13" target="8lPC1WI4pSzVhjpdEmEM-15" edge="1">
          <mxGeometry relative="1" as="geometry" />
        </mxCell>
        <mxCell id="8lPC1WI4pSzVhjpdEmEM-13" value="If inter company login is disabled, make sure logical address is matching with process logical addr" style="rounded=0;whiteSpace=wrap;html=1;" parent="1" vertex="1">
          <mxGeometry x="2890" y="500" width="190" height="60" as="geometry" />
        </mxCell>
        <mxCell id="5FcRQdoBI0TOSIp_MNyA-1" style="edgeStyle=orthogonalEdgeStyle;rounded=0;orthogonalLoop=1;jettySize=auto;html=1;exitX=1;exitY=0.5;exitDx=0;exitDy=0;" edge="1" parent="1" source="8lPC1WI4pSzVhjpdEmEM-15" target="5FcRQdoBI0TOSIp_MNyA-2">
          <mxGeometry relative="1" as="geometry">
            <mxPoint x="3340" y="530" as="targetPoint" />
          </mxGeometry>
        </mxCell>
        <mxCell id="8lPC1WI4pSzVhjpdEmEM-15" value="if TSA did not gave entitlements update, get it from cache.&amp;nbsp;&lt;br&gt;By calling&amp;nbsp;getEntsFromCache" style="rounded=0;whiteSpace=wrap;html=1;" parent="1" vertex="1">
          <mxGeometry x="3110" y="500" width="170" height="60" as="geometry" />
        </mxCell>
        <mxCell id="5FcRQdoBI0TOSIp_MNyA-4" style="edgeStyle=orthogonalEdgeStyle;rounded=0;orthogonalLoop=1;jettySize=auto;html=1;exitX=1;exitY=0.5;exitDx=0;exitDy=0;" edge="1" parent="1" source="5FcRQdoBI0TOSIp_MNyA-2" target="5FcRQdoBI0TOSIp_MNyA-5">
          <mxGeometry relative="1" as="geometry">
            <mxPoint x="3530" y="530" as="targetPoint" />
          </mxGeometry>
        </mxCell>
        <mxCell id="5FcRQdoBI0TOSIp_MNyA-2" value="if not special user, find the duplicate client record and kick out by calling&amp;nbsp;kickOffDuplicate" style="rounded=0;whiteSpace=wrap;html=1;" vertex="1" parent="1">
          <mxGeometry x="3330" y="500" width="150" height="60" as="geometry" />
        </mxCell>
        <mxCell id="5FcRQdoBI0TOSIp_MNyA-3" value="p.s : this will never execute&lt;br&gt;because we are already under&lt;br&gt;special user condition" style="text;html=1;align=center;verticalAlign=middle;resizable=0;points=[];autosize=1;" vertex="1" parent="1">
          <mxGeometry x="3300" y="560" width="180" height="50" as="geometry" />
        </mxCell>
        <mxCell id="5FcRQdoBI0TOSIp_MNyA-6" style="edgeStyle=orthogonalEdgeStyle;rounded=0;orthogonalLoop=1;jettySize=auto;html=1;exitX=1;exitY=0.5;exitDx=0;exitDy=0;" edge="1" parent="1" source="5FcRQdoBI0TOSIp_MNyA-5" target="5FcRQdoBI0TOSIp_MNyA-7">
          <mxGeometry relative="1" as="geometry">
            <mxPoint x="3710" y="530" as="targetPoint" />
          </mxGeometry>
        </mxCell>
        <mxCell id="5FcRQdoBI0TOSIp_MNyA-5" value="set mCQCompId by calling : mapFirmidToCompid" style="rounded=0;whiteSpace=wrap;html=1;" vertex="1" parent="1">
          <mxGeometry x="3510" y="500" width="150" height="60" as="geometry" />
        </mxCell>
        <mxCell id="5FcRQdoBI0TOSIp_MNyA-9" style="edgeStyle=orthogonalEdgeStyle;rounded=0;orthogonalLoop=1;jettySize=auto;html=1;exitX=1;exitY=0.5;exitDx=0;exitDy=0;" edge="1" parent="1" source="5FcRQdoBI0TOSIp_MNyA-7" target="5FcRQdoBI0TOSIp_MNyA-11">
          <mxGeometry relative="1" as="geometry">
            <mxPoint x="3870" y="530" as="targetPoint" />
          </mxGeometry>
        </mxCell>
        <mxCell id="5FcRQdoBI0TOSIp_MNyA-7" value="findSlotForClient :&lt;br&gt;here we create slot&lt;br&gt;tcp/udp/mcast" style="rounded=0;whiteSpace=wrap;html=1;" vertex="1" parent="1">
          <mxGeometry x="3710" y="500" width="120" height="60" as="geometry" />
        </mxCell>
        <mxCell id="5FcRQdoBI0TOSIp_MNyA-20" style="edgeStyle=orthogonalEdgeStyle;rounded=0;orthogonalLoop=1;jettySize=auto;html=1;exitX=1;exitY=0.5;exitDx=0;exitDy=0;" edge="1" parent="1" source="5FcRQdoBI0TOSIp_MNyA-11" target="5FcRQdoBI0TOSIp_MNyA-21">
          <mxGeometry relative="1" as="geometry">
            <mxPoint x="4070" y="530" as="targetPoint" />
          </mxGeometry>
        </mxCell>
        <mxCell id="5FcRQdoBI0TOSIp_MNyA-11" value="Here we populate&amp;nbsp;RDC string based on mSlot&#39;s FIDs" style="rounded=0;whiteSpace=wrap;html=1;" vertex="1" parent="1">
          <mxGeometry x="3880" y="500" width="120" height="60" as="geometry" />
        </mxCell>
        <mxCell id="5FcRQdoBI0TOSIp_MNyA-12" value="setClientSlotFlags" style="text;html=1;align=center;verticalAlign=middle;resizable=0;points=[];autosize=1;" vertex="1" parent="1">
          <mxGeometry x="3850" y="480" width="110" height="20" as="geometry" />
        </mxCell>
        <mxCell id="5FcRQdoBI0TOSIp_MNyA-17" style="edgeStyle=orthogonalEdgeStyle;rounded=0;orthogonalLoop=1;jettySize=auto;html=1;exitX=0.5;exitY=1;exitDx=0;exitDy=0;" edge="1" parent="1" source="5FcRQdoBI0TOSIp_MNyA-15" target="5FcRQdoBI0TOSIp_MNyA-18">
          <mxGeometry relative="1" as="geometry">
            <mxPoint x="4420" y="610" as="targetPoint" />
          </mxGeometry>
        </mxCell>
        <mxCell id="5FcRQdoBI0TOSIp_MNyA-30" style="edgeStyle=orthogonalEdgeStyle;rounded=0;orthogonalLoop=1;jettySize=auto;html=1;exitX=1;exitY=0.5;exitDx=0;exitDy=0;" edge="1" parent="1" source="5FcRQdoBI0TOSIp_MNyA-15">
          <mxGeometry relative="1" as="geometry">
            <mxPoint x="4720" y="530" as="targetPoint" />
          </mxGeometry>
        </mxCell>
        <mxCell id="5FcRQdoBI0TOSIp_MNyA-15" value="Send client allouncement to various processes." style="rounded=0;whiteSpace=wrap;html=1;" vertex="1" parent="1">
          <mxGeometry x="4360" y="500" width="120" height="60" as="geometry" />
        </mxCell>
        <mxCell id="5FcRQdoBI0TOSIp_MNyA-16" value="sendClientNotification" style="text;html=1;align=center;verticalAlign=middle;resizable=0;points=[];autosize=1;" vertex="1" parent="1">
          <mxGeometry x="4310" y="480" width="130" height="20" as="geometry" />
        </mxCell>
        <mxCell id="5FcRQdoBI0TOSIp_MNyA-29" style="edgeStyle=orthogonalEdgeStyle;rounded=0;orthogonalLoop=1;jettySize=auto;html=1;exitX=1;exitY=0.5;exitDx=0;exitDy=0;entryX=-0.013;entryY=0.375;entryDx=0;entryDy=0;entryPerimeter=0;" edge="1" parent="1" source="5FcRQdoBI0TOSIp_MNyA-18" target="5FcRQdoBI0TOSIp_MNyA-28">
          <mxGeometry relative="1" as="geometry" />
        </mxCell>
        <mxCell id="5FcRQdoBI0TOSIp_MNyA-18" value="builds a&amp;nbsp; bind_msg packet,&amp;nbsp;&lt;br&gt;from FID message" style="rounded=0;whiteSpace=wrap;html=1;" vertex="1" parent="1">
          <mxGeometry x="4340" y="610" width="160" height="40" as="geometry" />
        </mxCell>
        <mxCell id="5FcRQdoBI0TOSIp_MNyA-19" value="BindFidMsg::build" style="text;html=1;align=center;verticalAlign=middle;resizable=0;points=[];autosize=1;" vertex="1" parent="1">
          <mxGeometry x="4320" y="595" width="110" height="20" as="geometry" />
        </mxCell>
        <mxCell id="5FcRQdoBI0TOSIp_MNyA-23" style="edgeStyle=orthogonalEdgeStyle;rounded=0;orthogonalLoop=1;jettySize=auto;html=1;exitX=1;exitY=0.5;exitDx=0;exitDy=0;" edge="1" parent="1" source="5FcRQdoBI0TOSIp_MNyA-21" target="5FcRQdoBI0TOSIp_MNyA-24">
          <mxGeometry relative="1" as="geometry">
            <mxPoint x="4200" y="530" as="targetPoint" />
          </mxGeometry>
        </mxCell>
        <mxCell id="5FcRQdoBI0TOSIp_MNyA-21" value="" style="rounded=0;whiteSpace=wrap;html=1;" vertex="1" parent="1">
          <mxGeometry x="4030" y="500" width="120" height="60" as="geometry" />
        </mxCell>
        <mxCell id="5FcRQdoBI0TOSIp_MNyA-22" value="createClient" style="text;html=1;align=center;verticalAlign=middle;resizable=0;points=[];autosize=1;" vertex="1" parent="1">
          <mxGeometry x="4010" y="480" width="80" height="20" as="geometry" />
        </mxCell>
        <mxCell id="5FcRQdoBI0TOSIp_MNyA-26" style="edgeStyle=orthogonalEdgeStyle;rounded=0;orthogonalLoop=1;jettySize=auto;html=1;exitX=1;exitY=0.5;exitDx=0;exitDy=0;entryX=0;entryY=0.5;entryDx=0;entryDy=0;" edge="1" parent="1" source="5FcRQdoBI0TOSIp_MNyA-24" target="5FcRQdoBI0TOSIp_MNyA-15">
          <mxGeometry relative="1" as="geometry" />
        </mxCell>
        <mxCell id="5FcRQdoBI0TOSIp_MNyA-24" value="Update client count in slot" style="rounded=0;whiteSpace=wrap;html=1;" vertex="1" parent="1">
          <mxGeometry x="4180" y="500" width="120" height="60" as="geometry" />
        </mxCell>
        <mxCell id="5FcRQdoBI0TOSIp_MNyA-25" value="changeSlotClntCount" style="text;html=1;align=center;verticalAlign=middle;resizable=0;points=[];autosize=1;" vertex="1" parent="1">
          <mxGeometry x="4135" y="480" width="130" height="20" as="geometry" />
        </mxCell>
        <mxCell id="5FcRQdoBI0TOSIp_MNyA-28" value="send notifications to all processes listed in&amp;nbsp;&lt;br&gt;_bind_-&amp;gt;mCmPorts vector&lt;br&gt;using api :&amp;nbsp;sendUDPMsg" style="rounded=0;whiteSpace=wrap;html=1;" vertex="1" parent="1">
          <mxGeometry x="4549" y="600" width="150" height="80" as="geometry" />
        </mxCell>
        <mxCell id="5FcRQdoBI0TOSIp_MNyA-32" value="sendSuperbindTsaClientPlease" style="text;html=1;align=center;verticalAlign=middle;resizable=0;points=[];autosize=1;" vertex="1" parent="1">
          <mxGeometry x="4790" y="480" width="180" height="20" as="geometry" />
        </mxCell>
        <mxCell id="5FcRQdoBI0TOSIp_MNyA-34" style="edgeStyle=orthogonalEdgeStyle;rounded=0;orthogonalLoop=1;jettySize=auto;html=1;exitX=1;exitY=0.5;exitDx=0;exitDy=0;" edge="1" parent="1" source="5FcRQdoBI0TOSIp_MNyA-33" target="5FcRQdoBI0TOSIp_MNyA-36">
          <mxGeometry relative="1" as="geometry">
            <mxPoint x="4850" y="530" as="targetPoint" />
          </mxGeometry>
        </mxCell>
        <mxCell id="5FcRQdoBI0TOSIp_MNyA-33" value="special &lt;br&gt;user ?" style="rhombus;whiteSpace=wrap;html=1;" vertex="1" parent="1">
          <mxGeometry x="4720" y="490" width="80" height="80" as="geometry" />
        </mxCell>
        <mxCell id="5FcRQdoBI0TOSIp_MNyA-35" value="N" style="text;html=1;align=center;verticalAlign=middle;resizable=0;points=[];autosize=1;" vertex="1" parent="1">
          <mxGeometry x="4810" y="510" width="20" height="20" as="geometry" />
        </mxCell>
        <mxCell id="5FcRQdoBI0TOSIp_MNyA-37" style="edgeStyle=orthogonalEdgeStyle;rounded=0;orthogonalLoop=1;jettySize=auto;html=1;exitX=0.5;exitY=1;exitDx=0;exitDy=0;" edge="1" parent="1" source="5FcRQdoBI0TOSIp_MNyA-36" target="5FcRQdoBI0TOSIp_MNyA-38">
          <mxGeometry relative="1" as="geometry">
            <mxPoint x="4976" y="620" as="targetPoint" />
          </mxGeometry>
        </mxCell>
        <mxCell id="5FcRQdoBI0TOSIp_MNyA-43" style="edgeStyle=orthogonalEdgeStyle;rounded=0;orthogonalLoop=1;jettySize=auto;html=1;exitX=1;exitY=0.5;exitDx=0;exitDy=0;" edge="1" parent="1" source="5FcRQdoBI0TOSIp_MNyA-36" target="5FcRQdoBI0TOSIp_MNyA-44">
          <mxGeometry relative="1" as="geometry">
            <mxPoint x="5290" y="530" as="targetPoint" />
          </mxGeometry>
        </mxCell>
        <mxCell id="5FcRQdoBI0TOSIp_MNyA-36" value="builds&amp;nbsp;SUPERBIND_TSA_CLIENT_PLEASE type message&lt;br&gt;and sends in to REMQ (sbind)" style="rounded=0;whiteSpace=wrap;html=1;" vertex="1" parent="1">
          <mxGeometry x="4842" y="500" width="268" height="60" as="geometry" />
        </mxCell>
        <mxCell id="5FcRQdoBI0TOSIp_MNyA-40" style="edgeStyle=orthogonalEdgeStyle;rounded=0;orthogonalLoop=1;jettySize=auto;html=1;exitX=1;exitY=0.5;exitDx=0;exitDy=0;" edge="1" parent="1" source="5FcRQdoBI0TOSIp_MNyA-38" target="5FcRQdoBI0TOSIp_MNyA-41">
          <mxGeometry relative="1" as="geometry">
            <mxPoint x="5100" y="620" as="targetPoint" />
          </mxGeometry>
        </mxCell>
        <mxCell id="5FcRQdoBI0TOSIp_MNyA-38" value="builds msg :&lt;br&gt;sets attributes and constructs a message for sending" style="rounded=0;whiteSpace=wrap;html=1;" vertex="1" parent="1">
          <mxGeometry x="4916" y="590" width="120" height="60" as="geometry" />
        </mxCell>
        <mxCell id="5FcRQdoBI0TOSIp_MNyA-39" value="SbindReqMsg::build" style="text;html=1;align=center;verticalAlign=middle;resizable=0;points=[];autosize=1;" vertex="1" parent="1">
          <mxGeometry x="4860" y="570" width="120" height="20" as="geometry" />
        </mxCell>
        <mxCell id="5FcRQdoBI0TOSIp_MNyA-41" value="convert address to TL&#39;s type and send UDP message" style="rounded=0;whiteSpace=wrap;html=1;" vertex="1" parent="1">
          <mxGeometry x="5090" y="590" width="120" height="60" as="geometry" />
        </mxCell>
        <mxCell id="5FcRQdoBI0TOSIp_MNyA-42" value="SendUPDMsg" style="text;html=1;align=center;verticalAlign=middle;resizable=0;points=[];autosize=1;" vertex="1" parent="1">
          <mxGeometry x="5045" y="570" width="90" height="20" as="geometry" />
        </mxCell>
        <mxCell id="5FcRQdoBI0TOSIp_MNyA-44" value="Finally send response to client.&lt;br&gt;Build msg and send back msg to client proxy address (isi)&lt;br&gt;&lt;br&gt;This msg consist&amp;nbsp;SECURE_CLIENT_BIND_OK or&lt;br&gt;NEW_CLIENT_BIND_OK" style="rounded=0;whiteSpace=wrap;html=1;" vertex="1" parent="1">
          <mxGeometry x="5240" y="480" width="260" height="100" as="geometry" />
        </mxCell>
        <mxCell id="5FcRQdoBI0TOSIp_MNyA-45" value="sendClientBindOK" style="text;html=1;align=center;verticalAlign=middle;resizable=0;points=[];autosize=1;" vertex="1" parent="1">
          <mxGeometry x="5220" y="460" width="110" height="20" as="geometry" />
        </mxCell>
        <mxCell id="5FcRQdoBI0TOSIp_MNyA-49" value="" style="rounded=0;whiteSpace=wrap;html=1;" vertex="1" parent="1">
          <mxGeometry x="5520" y="380" width="150" height="90" as="geometry" />
        </mxCell>
        <mxCell id="5FcRQdoBI0TOSIp_MNyA-50" value="&lt;font style=&quot;font-size: 18px&quot;&gt;getClntCountOnSlot&lt;/font&gt;" style="text;html=1;align=center;verticalAlign=middle;resizable=0;points=[];autosize=1;" vertex="1" parent="1">
          <mxGeometry x="5450" y="360" width="180" height="20" as="geometry" />
        </mxCell>
        <mxCell id="5FcRQdoBI0TOSIp_MNyA-57" style="edgeStyle=orthogonalEdgeStyle;rounded=0;orthogonalLoop=1;jettySize=auto;html=1;exitX=0.5;exitY=1;exitDx=0;exitDy=0;" edge="1" parent="1" source="5FcRQdoBI0TOSIp_MNyA-55" target="5FcRQdoBI0TOSIp_MNyA-58">
          <mxGeometry relative="1" as="geometry">
            <mxPoint x="5810.529411764706" y="370" as="targetPoint" />
          </mxGeometry>
        </mxCell>
        <mxCell id="5FcRQdoBI0TOSIp_MNyA-63" style="edgeStyle=orthogonalEdgeStyle;rounded=0;orthogonalLoop=1;jettySize=auto;html=1;exitX=1;exitY=0.5;exitDx=0;exitDy=0;" edge="1" parent="1" source="5FcRQdoBI0TOSIp_MNyA-55" target="5FcRQdoBI0TOSIp_MNyA-64">
          <mxGeometry relative="1" as="geometry">
            <mxPoint x="6160" y="299.8823529411766" as="targetPoint" />
          </mxGeometry>
        </mxCell>
        <mxCell id="5FcRQdoBI0TOSIp_MNyA-55" value="if&amp;nbsp;tsa_logon_from_cache is on call&amp;nbsp;&lt;br&gt;tryLogonFromCache" style="rounded=0;whiteSpace=wrap;html=1;" vertex="1" parent="1">
          <mxGeometry x="5730" y="270" width="160" height="60" as="geometry" />
        </mxCell>
        <mxCell id="5FcRQdoBI0TOSIp_MNyA-60" style="edgeStyle=orthogonalEdgeStyle;rounded=0;orthogonalLoop=1;jettySize=auto;html=1;exitX=1;exitY=0.5;exitDx=0;exitDy=0;" edge="1" parent="1" source="5FcRQdoBI0TOSIp_MNyA-58" target="5FcRQdoBI0TOSIp_MNyA-61">
          <mxGeometry relative="1" as="geometry">
            <mxPoint x="5970" y="419.8823529411766" as="targetPoint" />
          </mxGeometry>
        </mxCell>
        <mxCell id="5FcRQdoBI0TOSIp_MNyA-58" value="if cache record exist in bind shared memory retrieve it and store it in temp_rec by calling&lt;br&gt;getClntRecFromCache&amp;nbsp;" style="rounded=0;whiteSpace=wrap;html=1;" vertex="1" parent="1">
          <mxGeometry x="5730" y="370" width="160" height="100" as="geometry" />
        </mxCell>
        <mxCell id="5FcRQdoBI0TOSIp_MNyA-59" value="tryLogonFromCache" style="text;html=1;align=center;verticalAlign=middle;resizable=0;points=[];autosize=1;" vertex="1" parent="1">
          <mxGeometry x="5690" y="350" width="120" height="20" as="geometry" />
        </mxCell>
        <mxCell id="5FcRQdoBI0TOSIp_MNyA-61" value="now we have all the information to login so login by calling&amp;nbsp; logClientIn" style="rounded=0;whiteSpace=wrap;html=1;" vertex="1" parent="1">
          <mxGeometry x="5950" y="380" width="160" height="80" as="geometry" />
        </mxCell>
        <mxCell id="5FcRQdoBI0TOSIp_MNyA-66" style="edgeStyle=orthogonalEdgeStyle;rounded=0;orthogonalLoop=1;jettySize=auto;html=1;exitX=1;exitY=0.5;exitDx=0;exitDy=0;" edge="1" parent="1" source="5FcRQdoBI0TOSIp_MNyA-64" target="5FcRQdoBI0TOSIp_MNyA-67">
          <mxGeometry relative="1" as="geometry">
            <mxPoint x="6350" y="299.8823529411766" as="targetPoint" />
          </mxGeometry>
        </mxCell>
        <mxCell id="5FcRQdoBI0TOSIp_MNyA-64" value="get timestamp from cache record if exist and put it in temp_rec" style="rounded=0;whiteSpace=wrap;html=1;" vertex="1" parent="1">
          <mxGeometry x="6130" y="270.0023529411766" width="120" height="60" as="geometry" />
        </mxCell>
        <mxCell id="5FcRQdoBI0TOSIp_MNyA-65" value="getCacheTimestamp" style="text;html=1;align=center;verticalAlign=middle;resizable=0;points=[];autosize=1;" vertex="1" parent="1">
          <mxGeometry x="6065" y="250" width="130" height="20" as="geometry" />
        </mxCell>
        <mxCell id="5FcRQdoBI0TOSIp_MNyA-69" style="edgeStyle=orthogonalEdgeStyle;rounded=0;orthogonalLoop=1;jettySize=auto;html=1;exitX=1;exitY=0.5;exitDx=0;exitDy=0;" edge="1" parent="1" source="5FcRQdoBI0TOSIp_MNyA-67" target="5FcRQdoBI0TOSIp_MNyA-70">
          <mxGeometry relative="1" as="geometry">
            <mxPoint x="6520" y="299.8823529411766" as="targetPoint" />
          </mxGeometry>
        </mxCell>
        <mxCell id="5FcRQdoBI0TOSIp_MNyA-76" style="edgeStyle=orthogonalEdgeStyle;rounded=0;orthogonalLoop=1;jettySize=auto;html=1;exitX=0.5;exitY=1;exitDx=0;exitDy=0;" edge="1" parent="1" source="5FcRQdoBI0TOSIp_MNyA-67" target="5FcRQdoBI0TOSIp_MNyA-77">
          <mxGeometry relative="1" as="geometry">
            <mxPoint x="6419.941176470588" y="410" as="targetPoint" />
          </mxGeometry>
        </mxCell>
        <mxCell id="5FcRQdoBI0TOSIp_MNyA-67" value="" style="rounded=0;whiteSpace=wrap;html=1;" vertex="1" parent="1">
          <mxGeometry x="6320" y="250" width="160" height="100" as="geometry" />
        </mxCell>
        <mxCell id="5FcRQdoBI0TOSIp_MNyA-68" value="&lt;span&gt;constructor of&amp;nbsp;PendingTSAReq&lt;br&gt;this creates an instance of &lt;br&gt;pending TSA request&lt;br&gt;&lt;/span&gt;" style="text;html=1;align=center;verticalAlign=middle;resizable=0;points=[];autosize=1;" vertex="1" parent="1">
          <mxGeometry x="6310" y="275" width="180" height="50" as="geometry" />
        </mxCell>
        <mxCell id="5FcRQdoBI0TOSIp_MNyA-74" style="edgeStyle=orthogonalEdgeStyle;rounded=0;orthogonalLoop=1;jettySize=auto;html=1;exitX=1;exitY=0.5;exitDx=0;exitDy=0;" edge="1" parent="1" source="5FcRQdoBI0TOSIp_MNyA-70" target="5FcRQdoBI0TOSIp_MNyA-75">
          <mxGeometry relative="1" as="geometry">
            <mxPoint x="6900" y="300.47058823529414" as="targetPoint" />
          </mxGeometry>
        </mxCell>
        <mxCell id="5FcRQdoBI0TOSIp_MNyA-70" value="&lt;b&gt;&lt;font style=&quot;font-size: 14px&quot;&gt;create TL link &amp;amp; send connect request&lt;br&gt;&amp;nbsp;- by calling initProxyLink,&lt;br&gt;,&lt;br&gt;if successful put the link/pending_ptr&lt;br&gt;by calling&amp;nbsp;insertPendingTsa&lt;/font&gt;&lt;/b&gt;" style="rounded=0;whiteSpace=wrap;html=1;" vertex="1" parent="1">
          <mxGeometry x="6560" y="250" width="270" height="100" as="geometry" />
        </mxCell>
        <mxCell id="5FcRQdoBI0TOSIp_MNyA-71" value="&lt;font style=&quot;font-size: 18px&quot;&gt;&lt;b&gt;initTsaLink&lt;/b&gt;&lt;/font&gt;" style="text;html=1;align=center;verticalAlign=middle;resizable=0;points=[];autosize=1;" vertex="1" parent="1">
          <mxGeometry x="6520" y="230" width="110" height="20" as="geometry" />
        </mxCell>
        <mxCell id="5FcRQdoBI0TOSIp_MNyA-73" style="edgeStyle=orthogonalEdgeStyle;rounded=0;orthogonalLoop=1;jettySize=auto;html=1;exitX=0.5;exitY=1;exitDx=0;exitDy=0;" edge="1" parent="1" source="5FcRQdoBI0TOSIp_MNyA-72" target="sQE3zmjhYJ1W6lFLZo4q-3">
          <mxGeometry relative="1" as="geometry" />
        </mxCell>
        <mxCell id="5FcRQdoBI0TOSIp_MNyA-72" value="START" style="ellipse;whiteSpace=wrap;html=1;" vertex="1" parent="1">
          <mxGeometry x="70" y="20" width="120" height="80" as="geometry" />
        </mxCell>
        <mxCell id="5FcRQdoBI0TOSIp_MNyA-75" value="END" style="ellipse;whiteSpace=wrap;html=1;" vertex="1" parent="1">
          <mxGeometry x="6880" y="260.0005882352941" width="120" height="80" as="geometry" />
        </mxCell>
        <mxCell id="5FcRQdoBI0TOSIp_MNyA-79" style="edgeStyle=orthogonalEdgeStyle;rounded=0;orthogonalLoop=1;jettySize=auto;html=1;exitX=1;exitY=0.5;exitDx=0;exitDy=0;" edge="1" parent="1" source="5FcRQdoBI0TOSIp_MNyA-77" target="5FcRQdoBI0TOSIp_MNyA-80">
          <mxGeometry relative="1" as="geometry">
            <mxPoint x="6550" y="429.8823529411766" as="targetPoint" />
          </mxGeometry>
        </mxCell>
        <mxCell id="5FcRQdoBI0TOSIp_MNyA-77" value="take backup of&amp;nbsp; tmp_rec in&amp;nbsp;mTmpClientRec" style="rounded=0;whiteSpace=wrap;html=1;" vertex="1" parent="1">
          <mxGeometry x="6340.001176470589" y="400" width="120" height="60" as="geometry" />
        </mxCell>
        <mxCell id="5FcRQdoBI0TOSIp_MNyA-78" value="copyUserData" style="text;html=1;align=center;verticalAlign=middle;resizable=0;points=[];autosize=1;" vertex="1" parent="1">
          <mxGeometry x="6310" y="375" width="90" height="20" as="geometry" />
        </mxCell>
        <mxCell id="5FcRQdoBI0TOSIp_MNyA-82" style="edgeStyle=orthogonalEdgeStyle;rounded=0;orthogonalLoop=1;jettySize=auto;html=1;exitX=1;exitY=0.5;exitDx=0;exitDy=0;" edge="1" parent="1" source="5FcRQdoBI0TOSIp_MNyA-80" target="5FcRQdoBI0TOSIp_MNyA-83">
          <mxGeometry relative="1" as="geometry">
            <mxPoint x="6790" y="429.8823529411766" as="targetPoint" />
          </mxGeometry>
        </mxCell>
        <mxCell id="5FcRQdoBI0TOSIp_MNyA-80" value="copy&lt;br&gt;branch,&lt;br&gt;companyId,&amp;nbsp;&lt;br&gt;loginServerId,&lt;br&gt;username,&lt;br&gt;psvr_type,&lt;br&gt;userid&lt;br&gt;&lt;br&gt;into&amp;nbsp;mReqBody &lt;br&gt;buffer&lt;br&gt;&lt;br&gt;in SOAP&lt;br&gt;messaging protocol format" style="rounded=0;whiteSpace=wrap;html=1;" vertex="1" parent="1">
          <mxGeometry x="6570" y="405" width="120" height="210" as="geometry" />
        </mxCell>
        <mxCell id="5FcRQdoBI0TOSIp_MNyA-81" value="constructReqBody" style="text;html=1;align=center;verticalAlign=middle;resizable=0;points=[];autosize=1;" vertex="1" parent="1">
          <mxGeometry x="6520" y="380" width="110" height="20" as="geometry" />
        </mxCell>
        <mxCell id="5FcRQdoBI0TOSIp_MNyA-83" value="construct request header in mReqBuf" style="rounded=0;whiteSpace=wrap;html=1;" vertex="1" parent="1">
          <mxGeometry x="6740" y="400" width="120" height="60" as="geometry" />
        </mxCell>
        <mxCell id="5FcRQdoBI0TOSIp_MNyA-84" value="constructReqHdr" style="text;html=1;align=center;verticalAlign=middle;resizable=0;points=[];autosize=1;" vertex="1" parent="1">
          <mxGeometry x="6705" y="375" width="110" height="20" as="geometry" />
        </mxCell>
      </root>
    </mxGraphModel>
  </diagram>
</mxfile>
